<svg id="Layer_1" xmlns="http://www.w3.org/2000/svg" viewBox="-245 374 90 36" enable-background="new -245 374 90 36"><style>.st0{filter:url(#filter-2)}.st1{fill:#fff}</style><filter width="200%" x="-50%" y="-50%" filterUnits="objectBoundingBox" id="filter-2" height="200%"><feOffset dx="5" dy="5" result="shadowOffsetOuter1" in="SourceAlpha"/><feGaussianBlur stdDeviation="5" result="shadowBlurOuter1" in="shadowOffsetOuter1"/><feColorMatrix values="0 0 0 0 0 0 0 0 0 0.901960784 0 0 0 0 0.462745098 0 0 0 0.115942029 0" in="shadowBlurOuter1"/></filter><g id="logo--copy-2"><g class="st0"><path id="path-1_2_" d="M-156.7 374h-86.6c-.9 0-1.7.8-1.7 1.7v32.5c0 .9.8 1.7 1.7 1.7h86.6c.9 0 1.7-.8 1.7-1.7v-32.5c0-.9-.8-1.7-1.7-1.7zm-60.7 30.2h-17.3v-24.4h5.1v20h12.2v4.4zm3-4.4h5.1v4.4h-5.1v-4.4zm0-20h5.1v16.4h-5.1v-16.4zm28.5 4.3h-12.3v5.6h10.8v4.2h-10.8v10.2h-5.1v-24.4h17.4v4.4zm22.2 20.1h-18.5v-24.4h17.9v4.3h-12.9v5.2h11.8v4.2h-11.8v6.3h13.5v4.4z"/></g><path id="path-1_1_" class="st1" d="M-156.7 374h-86.6c-.9 0-1.7.8-1.7 1.7v32.5c0 .9.8 1.7 1.7 1.7h86.6c.9 0 1.7-.8 1.7-1.7v-32.5c0-.9-.8-1.7-1.7-1.7zm-60.7 30.2h-17.3v-24.4h5.1v20h12.2v4.4zm3-4.4h5.1v4.4h-5.1v-4.4zm0-20h5.1v16.4h-5.1v-16.4zm28.5 4.3h-12.3v5.6h10.8v4.2h-10.8v10.2h-5.1v-24.4h17.4v4.4zm22.2 20.1h-18.5v-24.4h17.9v4.3h-12.9v5.2h11.8v4.2h-11.8v6.3h13.5v4.4z"/></g></svg>