<svg xmlns="http://www.w3.org/2000/svg"><g id="Page-1" fill="none" fill-rule="evenodd"><g id="1440" transform="translate(-508 -279)" fill="#FFF"><g id="man" transform="translate(508 279)"><path d="M428.416 478.908c-3.195 3.44-6.517 6.669-11.222 7.81-4.675 1.134-9.606.636-14.345 1.399-.508.081-.688.475-.63.866-2.339-.266-4.834-1.09-6.514-1.437-4.392-.907-7.282-2.703-10.218-6.094-4.345-5.019-8.021-10.391-12.717-15.033 5.487 1.446 10.211 4.919 15.73 6.37 6.24 1.642 12.696 1.395 19.024.453 6.979-1.04 13.921-2.398 20.87-3.618l10.083-1.77c1.668-.293 3.328-.494 4.835-1.098-1.991 1.472-4.087 2.813-6.141 4.24-3.292 2.289-6.032 4.981-8.755 7.912m-47.27-14.745c2.268.846 4.177 1.23 6.416 1.246.088-.014.178-.02.27-.014.457.036.91.063 1.362.067.232-.07.464-.136.701-.186 3.38-1.64 6.438-2.545 10.184-.905 2.663 1.165 5.156 1.555 8.057 1.63a.83.83 0 0 0 .521-.148c5.537 1.355 11.522 2.241 17.524 2.363-6.368 1.12-12.732 2.377-19.13 3.312-6.54.956-13.25 1.13-19.623-.894-5.216-1.657-9.72-4.975-15.103-6.147 2.92-1.01 5.742-1.473 8.82-.324m57.705 7.834c1.084-.736 2.172-1.459 3.248-2.193.168.191.405.313.642.336.285-.25.583-.488.89-.717.43-.66 1.203-1.031 2.033-1.285.888-.474 1.826-.87 2.789-1.195.472-.221.947-.433 1.425-.634-2.718.195-5.42-.075-8.182-.188-.764-.031-1.216-.53-1.366-1.108-4.166.94-8.524 1.35-12.521 1.333-6.528-.029-12.796-.731-19.12-2.314a.827.827 0 0 0-.785.184c-2.45-.076-4.676-.339-6.927-1.38-1.235-.57-2.348-1.108-3.73-1.253-2.818-.296-5.48.784-7.97 2.013-.032 0-.061-.005-.095-.004-1.91.122-3.725.156-5.58-.387-1.576-.46-2.955-1.258-4.601-1.496-2.876-.415-5.707.485-8.356 1.508-.53.203-.678.738-.56 1.168-.635.124-1.116.922-.499 1.469 3.598 3.187 6.553 6.64 9.488 10.44 2.676 3.464 5.38 7.549 8.934 10.18 3.344 2.478 7.767 2.893 11.735 3.657 2.95.568 5.893 1.268 8.416-.748l.001-.001c3.533-.174 7.093-.194 10.487-1.21 3.92-1.174 6.983-3.76 9.769-6.667 3.336-3.482 6.418-6.78 10.435-9.508m-46.402-46.036a.923.923 0 0 0-.753.57c1.235.001 2.46.019 3.7-.3 1.763-.452 3.33-1.383 4.843-2.367.129-.083.255-.136.38-.176-.194-1.102-1.661-1.589-2.768-1.788-3.128-.56-6.363-.217-9.43.74-2.423 1.003-4.683 2.378-6.515 4.085-1.172 1.318-2.39 2.602-3.529 3.943.202-.163.408-.322.615-.476 1.1-.82 2.124-1.756 3.229-2.566-.003-.003-.004-.007-.006-.01.12-.085.246-.162.368-.244.18-.124.362-.246.547-.361 2.578-1.635 5.443-2.76 8.485-3.251 1.738-.28 3.598-.387 5.354-.187 4.321.495-3.864 2.307-4.52 2.388m17.483-87.872c.981-.821 2.23-1.418 3.518-1.392.29.006.545.055.786.12a.91.91 0 0 0 .086.14c.685.898 1.56 1.656 2.544 2.308.057.05.117.089.18.12 2.279 1.458 5.103 2.35 7.532 2.979 4.297 1.113 8.845 1.27 13.175.243 5.118-1.214 9.918-3.831 14.844-5.62 4.067-1.475 7.875-3.18 10.449-6.814.018-.025.029-.05.043-.076-1.377 1.117-2.917 2.01-4.68 2.2-2.478 1.708-5.463 2.65-8.348 3.712-3.628 1.334-7.08 3.137-10.763 4.316a25.164 25.164 0 0 1-12.315.757c-2.62-.487-6.207-1.361-8.824-3.005-1.037-1.545-2.197-2.956-4.166-3.18-1.914-.218-3.888.716-5.317 1.935-1.126.962-2.42 2.552-1.287 4 .93 1.187 3.06 1.467 4.787 1.67-1.145-.368-2.075-1.037-2.165-2.292-.353-.07-.654-.185-.869-.579-.38-.698.184-1.035.79-1.542m51.046 3.62a.84.84 0 0 0-.402-.22 23.05 23.05 0 0 0 1.476-1.505c.04 1.337-.11 2.722-1.074 1.724m-2.465 2.68a7.983 7.983 0 0 1-.548-.763c.442-.318.873-.65 1.294-.991a78.638 78.638 0 0 0-.746 1.754m-3.41 1.642c-.088.747-.236.755-.445.025-.04-.09-.092-.17-.136-.257.326-.18.648-.365.968-.554-.1.316-.222.598-.388.786m-4.236 1.542c.244-.103.487-.21.73-.318.013.605.08 1.232.167 1.848-.259-.515-.5-1.04-.897-1.53m-3.436 2.378c-.362-.307-.75-.582-1.141-.72.462-.14.93-.289 1.399-.448-.106.39-.19.79-.258 1.168m-3.245 1.92c-.361-.451-.644-.955-.897-1.553a.788.788 0 0 0-.194-.281 36.47 36.47 0 0 0 1.716-.397c-.417.535-.558 1.41-.625 2.23m-2.552-1.104c-.04.586-.09 1.162-.158 1.733l-.547-2.078c.306-.044.61-.102.915-.153a.887.887 0 0 0-.21.498m-3.286.964l-.517-1.021a34.32 34.32 0 0 0 1.04-.065c-.197.361-.374.722-.523 1.086m-4.684 2.777c-.176-1.132-.167-2.791-.156-3.88.564.05 1.128.083 1.693.102a40.8 40.8 0 0 0-1.537 3.778m-6.146-3.23c.106-.576.235-1.151.4-1.728.218.065.438.131.658.192-.447.45-.772.978-1.058 1.536m-3.248 1.079a30.01 30.01 0 0 1 .596-3.85c.423.165.85.316 1.278.467-.645 1.125-1.07 2.417-1.874 3.383m-2.722-3.31c.082-.62.142-1.245.187-1.877.377.172.755.34 1.134.506a8.152 8.152 0 0 0-1.321 1.372m42.647-13.382c.242-1.171.403-2.358.606-3.536a.82.82 0 0 0-.573.587c-1.503 5.126-5.807 8.964-10.687 11.62-.41-.339-1.006-.266-1.335.216a2.98 2.98 0 0 0-.317.628 41.936 41.936 0 0 1-7.052 2.62c-9.298 2.535-17.333.266-25.744-3.851-1.022-.501-1.924 1.03-.896 1.534l.403.195c-.414.252-.812.52-1.196.8-.022.052-.037.104-.065.157-.667 1.26-1.514 2.4-2.423 3.491-.067.558-.138 1.118-.334 1.675-.115.328-.246.648-.381.967a24.8 24.8 0 0 0 1.407-1.838c-.01.224-.001.449.046.676.063.297.337.542.62.62 1.256.346 2.354-.627 3.268-1.875a29.267 29.267 0 0 1-1.463 5.116c-.363.943 1.154 1.563 1.624.685.847-1.584 1.748-3.972 3.01-5.717a32.289 32.289 0 0 0-.334 3.787c-.02.743.755 1.013 1.337.766a4.645 4.645 0 0 0 1.735-1.27c-.016.446-.021.897-.008 1.357.021.737.976 1.215 1.516.629.791-.858 1.215-2.111 1.785-3.208l-.55 4.188c-.124.945 1.223 1.105 1.655.448.877-1.331 1.258-2.94 1.862-4.409.022 1.992.318 4.068 1.986 4.7.455.172.966-.194 1.092-.62a38.536 38.536 0 0 1 1.741-4.737c.424.838.848 1.675 1.271 2.514.334.657 1.482.53 1.624-.213.09-.47.213-.908.354-1.337l.91 3.458c.236.898 1.428.786 1.713 0 .375-1.036.599-2.064.75-3.11.382.403.819.77 1.328 1.125.43.3 1.226.017 1.305-.53.019-.132.218-1.939.356-2.764.29.436 1.195 1.049 1.244 1.088.5.397 1.302.313 1.484-.392.2-.772.692-1.82.683-2.63-.002-.23-.01-.406-.018-.543.05.221.145.52.315.826.744 1.341 1.413 2.292 2.746 3.054.546.311 1.395-.074 1.337-.767-.087-1.036-.547-2.996-.564-4.561.573.765 1.288 1.38 2.162 1.117.944-.283 1.405-1.553 1.705-2.764.286.34.593.669.952.993.528.477 1.24.238 1.484-.392.304-.784.627-1.557.958-2.327.634.591 1.355.984 2.185.314.47-.38.737-1.036.882-1.792-.018-1.053-.05-2.102.036-3.15-.004-.035-.018-.065-.02-.102a5.513 5.513 0 0 1-.005-.884l-.007-.054a.986.986 0 0 0-.073-.256c.048-.07.09-.144.137-.216.1-.703.284-1.394.431-2.106m-136.162 15.293c.093.938 1.484 1.275 1.745.236l.542-2.163c.164.539.786.817 1.242.631l.01.132c.076.924 1.56 1.292 1.746.236l.145-.829c.233.486.555.878 1.006 1.108.372.19.951.112 1.195-.258.445.489 1.393.557 1.537-.27l.223-1.277c.381.747.839 1.457 1.438 2.134.32.362.848.317 1.188.042.504.496 1.483.26 1.51-.599l.024-.806c.147.215.306.42.49.608.593.605 1.425.09 1.516-.628.06-.473.1-.94.13-1.402a5.35 5.35 0 0 0 1.5 1.51c.6.4 1.295-.14 1.337-.767.025-.37.037-.736.05-1.103.285-.015.56-.151.705-.426.121-.23.234-.46.343-.69.268.482.648.873 1.233 1.077.305.106.638-.025.864-.229.38-.343.57-.786.685-1.264.312.595.509 1.264.756 1.976.374 1.072 2.091.611 1.713-.472-.735-2.11-.967-3.066-2.612-4.284-.435-.323-1.214 0-1.305.53-.062.367-.121 2.791-.15 1.654-.016-.696-.038-1.242-.198-2.055-.175-.893-1.482-.797-1.713 0-.1.347-.214.683-.335 1.015a5.737 5.737 0 0 1-.025-.119 34.79 34.79 0 0 0-.129-1.524c-.119-1.112-1.76-1.17-1.776 0-.009.626.036 1.204.138 1.76.036.644.05 1.289.049 1.934-.585-1.048-.912-2.313-1.409-3.356-.474-.994-1.747-.218-1.623.684.067.491.113.977.143 1.46a19.046 19.046 0 0 0-.256-1.04c-.246-.847-1.37-.799-1.67-.105-.534-.196-1.293.118-1.255.81.041.752.126 1.473.237 2.187.002.232-.007.464-.023.694-.437-.856-.74-1.769-1.037-2.73-.237-.773-1.54-.911-1.709-.011-.015-.155-.03-.31-.043-.466-.09-1.057-1.57-1.152-1.756-.19a13.865 13.865 0 0 0-.072-.795c-.127-.858-1.566-.838-1.713 0l-.09.51c-.282-.224-.67-.296-.971-.15l-.004-.05c-.074-.824-1.148-1.176-1.594-.568.047-.299.096-.6.152-.901.212-1.132-1.305-1.54-1.713-.473-.098.258-.197.512-.298.765a.947.947 0 0 0-.61-.265l.253-.825c.247-.805-.917-1.573-1.484-.864-.058.072-.112.145-.17.218a.91.91 0 0 0-.51-.319c-.254-.483-.88-.748-1.357-.219l-2.89 3.21a.864.864 0 0 0-.234.657l-.208.257c-.703.87.425 2.08 1.256 1.257a90.1 90.1 0 0 0 .206-.205c.112.17.272.3.451.368-.011.729 1.015 1.203 1.572.57l-.401 1.309c-.34 1.11 1.317 1.525 1.713.472.008-.023.019-.044.028-.068.336.424 1.165.365 1.512-.104.22-.298.423-.603.617-.912-.027 1.248.017 2.501.143 3.77m-44.317-89.228c-2.828 1.458-5.447 3.124-7.18 5.866-1.974 3.124-3.122 7.033-4.126 10.556-2.159 7.571-1.556 14.83 4.626 20.246 6.1 5.345 14.31 8.77 21.744 11.774 1.06.428 1.52-1.29.472-1.714-7.126-2.88-15.108-6.193-20.96-11.316-7.085-6.203-5.677-14.538-2.85-22.556 1.356-3.849 2.766-7.354 6.306-9.71 3.387-2.255 7.375-3.884 11.078-5.54a181.983 181.983 0 0 1 22.55-8.342c7.843-2.327 15.744-4.052 23.91-4.701 3.89-.309 7.774-.55 11.654-.84 1.226-.55 2.795-1.314 4.462-2.083-.144.014-.288.032-.432.046-.275.027-.551.046-.826.071a133.08 133.08 0 0 0 12.074-5.133c9.182-4.434 17.889-9.772 26.466-15.265 17.864-11.443 35.603-22.704 54.878-31.68 11.36-5.291 23.212-10.415 35.947-10.588 1.142-.016 1.146-1.792 0-1.777-9.821.134-19.148 3.138-28.12 6.932-9.443 3.994-18.666 8.555-27.663 13.468-17.54 9.578-33.668 21.41-50.996 31.328-4.63 2.65-9.354 5.145-14.209 7.364a124.04 124.04 0 0 1-8.365 3.47c-2.031.754-5.492 2.512-7.725 1.446-.742.136-1.484.267-2.235.347-.025.006-.05.008-.076.014.037.075.083.15.148.221.176.194.36.36.55.513-4.897.302-9.791.636-14.637 1.451-8.168 1.374-16.202 3.767-24.006 6.512-7.676 2.7-15.225 5.888-22.46 9.62m-14.336-18.03c.07.099.15.173.237.232-2.691 2.45-5.139 5.14-7.107 8.218-9.346 14.622-.263 34.036 10.653 45.17.802.817 2.058-.44 1.257-1.257-5.607-5.718-9.856-12.622-12.232-20.287-1.345-4.34-2.273-8.972-1.68-13.518.598-4.59 2.863-8.724 5.766-12.267 5.185-6.326 12.237-11.017 18.901-15.633 7.047-4.881 14.29-9.466 21.661-13.838.983-.583.09-2.12-.896-1.534-8.653 5.132-17.129 10.562-25.319 16.41-3.276 2.338-6.623 4.734-9.714 7.397-4.781-6.788-9.882-14.104-10.52-22.652-.654-8.784 4.746-15.835 9.892-22.383 9.566-12.176 21.246-22.564 34.377-30.753.968-.604.077-2.142-.897-1.534-14.17 8.839-26.661 20.199-36.687 33.568-4.985 6.649-9.343 13.467-8.36 22.126.964 8.505 5.866 15.716 10.668 22.535m348.533 68.204c1.32 1.114 2.544 1.839 3.423 3.382.842 1.48 1.281 3.172 1.653 4.823.691 3.074 1.116 6.28.638 9.418-.53 3.477-2.426 5.81-4.325 8.618-1.19 1.76-3.973 7.428-.21 8.352 1.813.445 2.94-1.685 3.874-2.827 1.942-2.373 4.14-4.674 5.815-7.248.601-.925 1.053-1.867 1.244-2.966.262-1.498-.233-2.676.994-4.06 1.9-2.14 5.53-2.753 8.114-3.622 4.83-1.622 7.85-4.177 10.013-8.843 1.929-4.16 3.844-10.032 1.722-14.46-1.833-3.827-6.118-5.41-9.902-6.59-3.644-1.138-7.297-2.278-10.966-3.33-2.776-.796-4.09.251-6.677 1.31-5.163 2.116-4.848 6.742-3.176 11.362 0 .003.003.004.004.007a1.65 1.65 0 0 1-.067-.36c-.143-2.147-.233-4.498.832-6.294.09-.315.212-.624.379-.927.937-1.7 3.509-2.728 5.39-3.295 2.64-.797 5.875.83 8.412 1.6 2.316.703 4.656 1.353 6.945 2.14 5.18 1.784 8.577 4.9 7.727 10.777-.659 4.552-2.669 10.503-6.646 13.19-3.121 2.11-7.054 2.502-10.405 4.136-1.243.607-2.69 1.428-3.524 2.587a3.617 3.617 0 0 0-.488.96c-.059.227-.111.456-.175.682-.155.861-.12 1.758-.3 2.682-.505 2.604-2.709 4.648-4.342 6.643l-1.363 1.666c-.57 1.015-1.059 2.218-1.996 2.774-1.312.78-2.518-.694-2.123-1.815-.014-.671.36-1.353 1.13-1.493a8.72 8.72 0 0 1 .739-1.247c.237-.443.462-.847.639-1.069 1.11-1.39 2.276-2.704 3.067-4.317.31-.635.59-1.314.857-2.01.05-.155.101-.31.146-.467.99-3.507.701-7.278-.01-10.845-.596-.141-1.129-.596-1.183-1.37-.13-1.807-1.3-3.362-1.97-5.001a1.116 1.116 0 0 1-.023-.73c-2.274-2-4.768-3.817-6.327-6.375-.012 2.003.949 3.193 2.441 4.452M483.25 633.447c-17.79-3.539-35.385-8.436-50.908-17.791-10.305-6.21-20.33-13.355-29.469-21.184-9.001-7.712-16.363-16.596-22.356-26.818-4.241-7.234-8.003-14.753-12.258-21.97a1.488 1.488 0 0 1-.18-.192c-1.866-2.441-3.427-5.098-5.293-7.538-1.149-1.502-2.538-2.76-3.934-4.015-.162.235-.19.541.048.853 7.275 9.496 12.451 20.281 18.303 30.658 5.8 10.287 12.581 19.57 21.33 27.552 8.733 7.968 18.509 14.964 28.423 21.378 10.453 6.763 21.488 11.897 33.472 15.299 12.47 3.54 25.275 6.096 38.065 8.317-.297-.092-.593-.184-.89-.274-4.802-1.46-9.768-2.223-14.353-4.275M811.045 678.9c-1.328-3.51-3.941-6.38-5.75-9.617a1.11 1.11 0 0 0-.14-.313l-.168-.258a16.163 16.163 0 0 1-.944-2.156c-.566-.56-1.12-1.122-1.583-1.764h-.03c-.152-.234-.303-.467-.456-.7-.415-.636-.82-1.277-1.293-1.87-.495-.62-1.345-1.117-1.708-1.817a.999.999 0 0 0-.476-.473c-3.092-4.958-7.561-9.094-11.58-13.281-5.714-5.951-11.092-12.657-18.873-15.929-7.402-3.112-14.865-4.381-20.415-10.683-2.029-2.304-4.033-4.72-6.914-5.973-2.404-1.046-4.993-1.466-7.391-2.58-2.164-1.006-4.238-2.227-6.314-3.4-9.3-5.255-18.305-11.014-27.013-17.202 4.81 5.471 10.99 9.347 17.03 13.386a298.277 298.277 0 0 0 11.029 6.439c2.3 1.277 4.614 2.571 7.095 3.468 2.95 1.066 5.677 1.504 8.081 3.71 3.168 2.906 5.404 6.407 9.205 8.618 3.854 2.241 8.212 3.368 12.377 4.867 5.317 1.912 9.466 4.803 13.423 8.819 3.913 3.97 7.739 8.032 11.593 12.06 2.585 2.701 5.154 5.444 7.131 8.565-.037.217-.01.454.117.697.243.47.569.78.93 1.105.364.688.694 1.397.993 2.127.77.576 1.295 1.364 1.807 2.18.091.025.189.043.298.045l.128.001 2.027 3.107c.053.082.112.15.176.211 1.368 2.29 3.104 4.371 4.38 6.754 2.337 4.362 2.96 9.406 3.333 14.267.815 10.59 1.01 20.944-.797 31.448-1.753 10.194-4.52 20.194-5.953 30.446-.676 4.839-.843 9.719-1.41 14.567-.648 5.534-2.344 10.81-4.003 16.105l-10.972 35.01c-.424 1.35 1.695 1.929 2.116.583l9.928-31.675c1.607-5.128 3.419-10.254 4.448-15.539.994-5.106 1.09-10.32 1.643-15.48 1.138-10.61 4.024-20.928 5.957-31.401.916-4.959 1.637-9.97 1.875-15.01.26-5.479-.092-10.962-.454-16.428-.333-5.053-.674-10.255-2.483-15.036M462.824 562.55c-.54.01-1.076-.003-1.607-.038a107.027 107.027 0 0 0-9.785 15.38c-.528 1.012 1.004 1.912 1.534.896a105.965 105.965 0 0 1 10.243-15.988 2.836 2.836 0 0 1-.385-.25m4.854 2.196c-4.78 5.666-9.343 11.63-11.629 18.698.13.084.26.167.39.253.386.252.762.528 1.139.8 2.186-7.154 6.802-13.117 11.613-18.8-.512-.303-1.02-.62-1.513-.95m7.424 4.02c-3.669 6.049-7.106 12.233-8.9 19.137a.873.873 0 0 0-.001.451l.236.095c.378.149.757.287 1.138.42a.814.814 0 0 0 .34-.494c1.77-6.815 5.186-12.899 8.811-18.864a91.455 91.455 0 0 1-1.624-.746m7.845 3.308a91.712 91.712 0 0 1-5.296 9.46c-1.922 3-3.734 5.78-4.095 9.396-.002.014 0 .024 0 .036.281.125.562.252.84.392.175.087.351.169.526.253a.896.896 0 0 0 .41-.681c.394-3.944 3.004-7.062 5.006-10.327 1.569-2.56 2.977-5.206 4.273-7.91-.553-.202-1.108-.408-1.664-.619m5.412 3.226a161.785 161.785 0 0 0-7.75 18.693c.545.218 1.09.442 1.633.673.013-.028.028-.053.039-.084a158.267 158.267 0 0 1 7.611-18.386c.502-1.022-1.03-1.924-1.533-.896m9.097.755a217.2 217.2 0 0 1-1.723-.342c0 .003-.002.005-.003.008-.83 4.27-2.34 8.302-3.946 12.332-1.12 2.81-3.26 6.364-3.062 9.529.575.256 1.151.507 1.73.751a.906.906 0 0 0 .061-.542c-.326-1.829.988-4.198 1.638-5.876.69-1.78 1.419-3.547 2.113-5.327 1.323-3.393 2.483-6.814 3.18-10.395.009-.048.01-.093.012-.138m6.214 1.336c-.021.03-.044.055-.064.088-4.095 6.991-5.37 15.17-7.071 22.985.569.148 1.145.281 1.728.397 1.657-7.63 2.88-15.663 6.877-22.485a.812.812 0 0 0 .08-.71 33.408 33.408 0 0 1-1.55-.275m8.31 5.17a78.144 78.144 0 0 0-3.728 18.814c.407.01.814.028 1.221.055.186.013.365.04.546.06a76.31 76.31 0 0 1 3.673-18.456c.36-1.088-1.355-1.555-1.713-.473m7.538-.413a308.29 308.29 0 0 0-3.804 20.845c.56.178 1.127.349 1.71.498a308.226 308.226 0 0 1 3.807-20.871c.243-1.115-1.468-1.59-1.713-.472m8.76 5.344a114.162 114.162 0 0 0-2.4 20.125c.589.084 1.18.144 1.771.194.19-6.682.963-13.297 2.342-19.847.235-1.115-1.477-1.592-1.712-.472m8.386.647a173.633 173.633 0 0 0-1.968 20.049c.59.033 1.182.067 1.772.103a169.27 169.27 0 0 1 1.908-19.68c.176-1.118-1.535-1.6-1.712-.472m5.673.863l-.384 19.792c.48.068.961.142 1.44.229l.33.057.39-20.078c.023-1.144-1.753-1.144-1.776 0m11.891-2.193a57.57 57.57 0 0 0-3.53 23.37c.014.268.128.472.287.615.263.081.526.157.791.229.388-.055.726-.335.698-.845a56.326 56.326 0 0 1 3.467-22.897c.399-1.073-1.317-1.536-1.713-.472m9.083 2.408c.046-1.143-1.73-1.142-1.776 0l-.429 10.615c-.11 2.727-.84 6.121.21 8.694.427 1.045 2.146.587 1.713-.473-1.09-2.67-.213-6.573-.099-9.4l.381-9.436m6.708 2.14l.892 17.936c.183-.002.365-.001.548 0 .406-.084.81-.167 1.216-.254l-.88-17.682c-.057-1.138-1.833-1.145-1.776 0m13.815-2.997c.042-1.144-1.734-1.142-1.776 0-.228 6.138-.147 12.269.245 18.4.073 1.135 1.85 1.144 1.777 0a182.185 182.185 0 0 1-.246-18.4m5.503.031a73.245 73.245 0 0 1 2.804 18.355c.029 1.142 1.805 1.146 1.776 0a75.198 75.198 0 0 0-2.867-18.827c-.314-1.098-2.028-.631-1.713.472m10.253.215a82.166 82.166 0 0 1 2.601 15.573c.08 1.135 1.856 1.143 1.777 0a84.709 84.709 0 0 0-2.665-16.045c-.295-1.104-2.008-.635-1.713.472m10.51-5.38c.747 6.573 3.375 12.69 3.918 19.32.092 1.132 1.87 1.142 1.776 0-.543-6.632-3.172-12.755-3.917-19.32-.127-1.123-1.905-1.136-1.776 0m10.84-1.122c-.25-1.116-1.964-.644-1.712.472l4.433 19.73c.251 1.115 1.964.643 1.713-.473l-4.434-19.73m10.666 5.652c-.245-1.016-.577-1.999-1.079-2.918-.738-1.352-2.664-2.905-1.906-4.613.46-1.037-1.071-1.942-1.534-.898-.915 2.063-.035 3.443 1.123 5.205 2.18 3.319 2.343 7.427 2.857 11.277.149 1.117 1.927 1.132 1.776 0-.357-2.677-.604-5.426-1.237-8.053m5.257-9.864c1.899 5.93 3.526 11.933 4.89 18.007a10.36 10.36 0 0 0 1.785-.149 209.137 209.137 0 0 0-4.963-18.33c-.347-1.085-2.062-.62-1.712.472m7.454-1.827c3.57 4.899 6.088 10.365 8.462 15.908a44.953 44.953 0 0 1 1.592-.762c-2.392-5.59-4.92-11.103-8.52-16.043-.667-.915-2.209-.029-1.534.897m10.095-1.178a80.945 80.945 0 0 0 6.988 13.512l1.694-.645a78.14 78.14 0 0 1-6.97-13.34c-.422-1.046-2.14-.588-1.712.473m8.265-3.095c-1.143-.06-1.14 1.717 0 1.777.856.045 2.414 2.828 2.912 3.51l2.007 2.75 3.447 4.721c.55-.242 1.098-.491 1.644-.747l-5.564-7.62c-1.122-1.537-2.293-4.277-4.446-4.39m10.325-6.788c-.722-.887-1.972.377-1.256 1.256 3.724 4.575 8.638 8.092 12.177 12.788.556-.24 1.11-.488 1.66-.74-3.622-4.917-8.715-8.555-12.581-13.304m7.253-7.05c-.765-.852-2.018.408-1.256 1.257 4.244 4.736 10.435 7.155 14.41 12.161.711.895 1.96-.37 1.256-1.256-3.98-5.013-10.167-7.427-14.41-12.161m23.26 5.097c-2.751-1.286-4.933-3.715-7.165-5.73l-6.67-6.023c-.847-.764-2.107.489-1.256 1.257l7.454 6.73c2.113 1.908 4.131 4.08 6.74 5.3 1.029.482 1.932-1.05.896-1.534m10.407-9.12a179.713 179.713 0 0 1-14.258-10.69c-.874-.725-2.137.526-1.256 1.257a184.327 184.327 0 0 0 14.618 10.968c.95.641 1.839-.897.896-1.534m10.324-7.366a104.622 104.622 0 0 0-16.898-9.58c-1.034-.465-1.939 1.065-.897 1.535a104.589 104.589 0 0 1 16.898 9.58c.94.654 1.829-.885.897-1.535m4.709-5.782l-10.243-7.293c-.933-.665-1.82.875-.896 1.534l10.242 7.293c.933.665 1.821-.875.897-1.534m.093-12.145c-3.066-2.1-6.3-3.908-9.657-5.496-1.028-.486-1.93 1.045-.897 1.534 2.717 1.285 5.357 2.707 7.89 4.326 2.624 1.677 5.756 3.462 7.151 6.35a.8.8 0 0 0 .335.367c.357-.51.71-1.024 1.055-1.539-1.296-2.452-3.625-4-5.877-5.542m-2.934-12.769c-.998-.56-1.895.975-.897 1.535 4.96 2.783 10.002 5.702 13.069 10.664a.9.9 0 0 0 .235.256c.316-.565.628-1.133.934-1.707-3.254-4.901-8.29-7.913-13.341-10.748m4.757-5.64c-1.007-.54-1.906.994-.896 1.534a46.586 46.586 0 0 1 11.615 8.787c.225.233.487.296.729.253.218-.44.443-.876.672-1.31a.933.933 0 0 0-.145-.2 48.12 48.12 0 0 0-11.975-9.064m1.092-9.543c-1.06-.427-1.52 1.29-.471 1.713 6.048 2.439 10.884 6.854 13.96 12.58.338-.62.67-1.241.994-1.867-3.322-5.673-8.344-9.951-14.483-12.426m3.22-8.709c-1.035-.462-1.94 1.07-.896 1.535 5.553 2.478 10.623 5.72 15.176 9.757a.893.893 0 0 0 .431.214c.226-.531.63-.848 1.102-.98a.796.796 0 0 0-.277-.49c-4.664-4.134-9.843-7.495-15.536-10.036m-.302-5.461c5.722.771 11.66 1.688 15.908 5.91a23.648 23.648 0 0 0-1.644-3.573c-4.057-2.574-8.957-3.399-13.792-4.05-1.117-.151-1.601 1.56-.472 1.713m-4.842-5.135a66.567 66.567 0 0 1 8.986-4.4 15.957 15.957 0 0 1-.666-1 2.376 2.376 0 0 1-.242-.54 68.549 68.549 0 0 0-8.974 4.406c-.986.578-.093 2.114.896 1.534m-11.065-18.097c-.443 5.874-1.337 11.717-4.732 16.676-.647.945.891 1.835 1.534.896 3.568-5.212 4.508-11.4 4.974-17.572.086-1.141-1.69-1.135-1.776 0m-6.78-3.808a144.05 144.05 0 0 1-4.169 16.846c-.341 1.094 1.373 1.562 1.713.473a144.05 144.05 0 0 0 4.17-16.846c.206-1.118-1.505-1.597-1.713-.473m-12.044-.123l-2.311 10.02c-.257 1.113 1.455 1.588 1.713.472l2.31-10.02c.257-1.112-1.455-1.587-1.712-.472m-6.088-7.602c-.168.1-.299.272-.345.535a144.55 144.55 0 0 0-1.922 16.04.808.808 0 0 0 .118.498c.265.112.525.229.783.351.422-.027.841-.309.875-.85.331-5.225.948-10.41 1.859-15.566a.904.904 0 0 0-.082-.58 40.09 40.09 0 0 0-1.286-.428m-12.988-1.667a.89.89 0 0 0-.183-.493 33.512 33.512 0 0 1-1.293-.197c-.194.14-.323.368-.3.69a90.512 90.512 0 0 0 1.28 10.14c.398.072.794.291 1.142.705l.152.179c.327-.176.569-.525.482-.987a86.504 86.504 0 0 1-1.28-10.037m-8.423-3.503c-.474-.243-.948-.487-1.425-.724-.002.044-.004.089.001.138a43.125 43.125 0 0 0 2.248 9.81c.088.032.176.061.261.105.63.324 1.25.714 1.813 1.166.083-.03.17-.057.256-.076a40.42 40.42 0 0 1-2.697-10.182c-.152-.08-.304-.159-.457-.237m12.557 5.301l.2 12.986c.49.447.997.87 1.524 1.268a.804.804 0 0 0 .261-.637l-.209-13.617c-.017-1.142-1.794-1.146-1.776 0M451.64 564.614c.064-.094.124-.191.184-.288.12-.195.235-.392.352-.588.117-.197.244-.383.371-.57.025-.042.046-.087.072-.128a7.41 7.41 0 0 0-.44-.867c-.018-.03-.036-.055-.054-.083-.4.022-.8.044-1.2.068a1.921 1.921 0 0 0-.276.583.207.207 0 0 0 .023.16c-2.087 3.34-4.292 6.6-5.672 10.322.275.221.548.446.817.675.197.167.384.343.574.516a.928.928 0 0 0 .159-.281c1.092-3.123 2.824-5.904 4.587-8.671.115-.282.289-.536.496-.805-.297.385-.05.045.007-.042m-6.323-3.12a2.009 2.009 0 0 1-.092-.118 8.97 8.97 0 0 1-1.725-.122l-.05.078-.107.113c-.004-.018-.01-.035-.013-.053-.044.07-.084.142-.128.212-.009.014-.02.028-.025.043a20.374 20.374 0 0 0-2.524 6.219c-.25 1.114 1.463 1.59 1.713.472.374-1.674.952-3.259 1.733-4.747a.22.22 0 0 0 .05-.084l.029-.065c.102-.191.206-.381.316-.569l-.04-.018.04-.066c.168-.195.33-.397.474-.616a.187.187 0 0 0 .023-.05c.103-.11.209-.218.326-.318.094-.082.074-.227 0-.311m-10.268 3.438c-.231 1.116 1.48 1.593 1.713.472.36-1.734.888-3.414 1.593-5.037-.553-.19-1.105-.399-1.653-.616a27.258 27.258 0 0 0-1.653 5.181m-6.794-7.986l-1.007 2.835c-.382 1.08 1.333 1.544 1.713.472l1.006-2.835a.875.875 0 0 0 .052-.321c-.55-.1-1.098-.233-1.644-.38a.948.948 0 0 0-.12.229m-148.33-10.367c-4.236 3.566-9.004 6.582-14.364 8.106-5.317 1.51-10.931 1.09-16.292 2.376-5.202 1.247-10.057 3.635-14.833 5.99-5.207 2.568-10.378 5.216-15.542 7.877-3.972 2.046-7.502 4.325-8.103 9.098-.36 2.837.233 5.656.57 8.466-6.058 7.364-11.993 15.01-17.296 22.996 4.803-14.534 8.692-29.428 7.91-44.864a.852.852 0 0 0-.498-.756c.27 4.707.05 9.337-1.233 13.883-.213 1.763-.73 3.51-1.15 5.223l-.002.004c-1.79 11.213-5.347 22.163-9.079 32.93-.342.566-.698 1.133-1.036 1.704-3.055 5.204-2.867 10.991-2.779 16.853.088 5.568.68 11.07 2.937 16.164 1.062 4.417 2.647 8.694 4.776 12.725 2.643 4.997 6.15 9.555 8.24 14.838 4.456 11.241 1.3 23.641-2.234 34.667-3.565 11.123-8.003 22.68-6.664 34.576.654 5.858 3.156 11.28 3.038 17.243-.119 6.113-2.006 12.041-3.662 17.872-1.936 6.802-3.757 13.648-5.808 20.419-.193.637-.777 1.717-.996 2.718-.21.176-.347.448-.33.812a28.19 28.19 0 0 1-1.948 11.69h2.335a29.873 29.873 0 0 0 1.835-10.315c.702-.29.966-1.29.606-2.12a.753.753 0 0 0-.136-.203c.698-1.304 1.738-5.467 1.936-6.165l2.607-9.169c1.541-5.427 3.258-10.837 4.505-16.343 1.123-4.97 1.703-10.078.763-15.128-.478-2.577-1.32-5.067-1.91-7.618-.702-3.066-.952-6.196-.855-9.336.663-21.064 16.796-41.364 9.561-62.744-1.808-5.357-5.097-9.972-7.893-14.829a53.648 53.648 0 0 1-4.667-10.626c-1.334-2.147-2.87-5.313-2.669-7.76a1.635 1.635 0 0 0-.246.032c-1.075-4.01-1.325-8.221-1.352-12.423-.022-2.916-.114-5.898.303-8.786a14.12 14.12 0 0 1 .527-2.244c-.07-.285-.048-.61.114-.953.69-1.436 1.594-2.74 2.463-4.07.07-.198.14-.396.206-.598l.51-.804c5.93-9.265 12.393-18.175 19.307-26.728.606-1.871 1.075-3.777 1.264-5.761a1.39 1.39 0 0 1 .066-.316c-.04-.352-.083-.699-.119-1.05-.215-2.213-.333-4.654.76-6.675 1.431-2.652 4.368-3.938 6.923-5.255 4.996-2.57 10-5.13 15.04-7.615 4.803-2.366 9.667-4.755 14.922-5.928 5.206-1.159 10.624-.799 15.778-2.261 4.477-1.273 8.604-3.54 12.322-6.319 7.494-5.595 13.346-13.02 20.62-18.868.395-.318.798-.624 1.2-.932 1.786-2.387 5.556-4.344 7.335-5.432 5.43-3.32 11.112-5.865 16.936-8.356-7.905 2.089-15.435 5.475-22.209 10.104-8.324 5.696-14.645 13.53-22.31 19.984m151.933-6.154l.017.007a.782.782 0 0 1 .115-.16c-.033-.013-.08.022-.132.153m324.432-34.213c-.252.533-.506 1.064-.758 1.594-.704 3.146-1.767 6.232-3.015 9.196-.026.29-.046.582-.055.877a.96.96 0 0 0 .035.286c-8.802 20.414-23.715 37.904-41.438 51.358-25.466 19.33-56.525 29.38-87.326 36.542-16.656 3.874-33.553 6.591-50.568 8.203.145-.048.294-.092.443-.14a.847.847 0 0 0 .557-.526c-.62.006-1.24-.005-1.869-.008-2.304.473-4.617.911-6.91 1.385-1.383.287-2.807.49-4.234.618-7.537 1.481-15.263 1.886-22.809.213-4.093-.908-7.924-2.63-11.951-3.693a26.265 26.265 0 0 1-2.828-.428 30.065 30.065 0 0 1-1.74-.435c-2.383-.325-4.687-.662-6.954-1.592-2.305-.944-4.474-2.117-6.976-2.464-2.445-.337-4.886-.03-7.336.114-3.464.207-6.545-.241-9.737-1.611-5.15-2.218-9.913-5.22-15.093-7.407-5.013-2.117-10.167-3.808-15.435-5.169-2.476-.64-5-1.23-7.31-2.358-2.748-1.344-5.11-3.337-7.419-5.309-8.876-7.566-16.756-16.207-23.56-25.67.245-.316.298-.768-.071-1.129a50.905 50.905 0 0 1-3.635-3.965c2.696.18 5.316-.58 7.95 1.085.325.202.817.136 1.08-.14.15-.163.303-.322.453-.484.158.224.333.44.557.663.268.263.75.356 1.08.137l.97-.642c.922.843 2.077 1.102 3.46 1.182 3.147.175 6.339.088 9.495.1.206.492.408.984.61 1.476.207.496.777.874 1.309.527l1.053-.685c1.032.838 2.103 1.374 3.46 1.716.294.071.658.01.864-.227.422-.044.848-.084 1.27-.128.148.143.374.252.596.265.045-.03.087-.06.136-.087.33-.187.687-.279 1.04-.284 1.97-.665 3.924-.89 6.059-.689.298.027.628-.188.768-.443.711-.057 1.422-.114 2.134-.176.294.426 1.005.659 1.396.18.513-.983 1.396-1.295 2.638-.935.206.693.966.8 1.484.39 2.18-1.717 4.657-2.956 7.27-3.82a8.065 8.065 0 0 0 2.65 3.86c4.975 4.694 11.234 7.61 17.763 9.665 9.022 2.837 18.438 4.672 27.68 6.644 20.062 4.281 40.137 6.64 60.656 5.036 19.926-1.559 39.717-5.779 58.91-11.267 8.969-2.565 17.428-6.051 25.159-11.333 7.265-4.967 13.754-10.974 19.944-17.205 11.87-11.961 24.672-24.388 31.639-39.875.004-.198.052-.404.162-.615 2.177-4.027 3.253-8.523 3.429-13.081.013-.391.166-.685.39-.896.14-1.234.316-2.459.575-3.671.26-2.16.43-4.33.492-6.512-.505-5.27-.76-10.64-3.007-15.483-.193 1.414.558 3.39.698 4.51.347 2.718.527 5.462.553 8.207a69.873 69.873 0 0 1-.377 7.965.787.787 0 0 1-.062-.057l-.035.32c-.004.027-.013.048-.018.075a18.882 18.882 0 0 1-.11 1.722 1.373 1.373 0 0 1-.118.407c.013.018.027.04.035.058a76.014 76.014 0 0 1-1.339 7.17c-.228.062-.456.128-.685.194-.039 0-.074-.009-.114-.005-3.2.19-6.251-.39-9.052-2.01-2.177-1.256-4.017-3-6.242-4.185-2.318-1.234-4.851-1.994-7.174-3.219-2.133-1.124-4.1-2.525-6.032-3.966-4.815-3.583-9.644-7.253-13.727-11.684-3.776-4.097-6.945-8.703-9.873-13.428-3.464-5.586-6.928-11.395-10.05-17.393 7.613 4.303 15.05 8.479 23.777 10.266 4.728.97 9.513 1.936 14.334 2.262 5.386.36 10.21.452 15.294 2.547 9.724 4.004 19.07 9.405 26.06 17.37 3.472 3.957 6.514 8.278 9.64 12.502 2.928 3.96 6.093 7.834 8.758 11.984 3.446 5.37 2.884 10.121.277 15.658M416.62 552.425c-.974-.325-1.879-.808-2.752-1.405-.874-.602-1.726-1.317-2.604-2.095-.347-.307-.917-.373-1.255 0-.277.303-.558.606-.839.914-.4-.286-.799-.571-1.203-.857-.267-.193-.623-.127-.895 0l-.549.26c-.65-.94-1.69-1.353-2.818-1.134-.505-1.133-1.006-2.27-1.506-3.403-.193-.435-.843-.549-1.216-.32-.268.163-.536.325-.803.492-.37-.98-.742-1.959-1.116-2.938-.184-.488-.794-.892-1.303-.532-.172.124-.343.242-.518.365-.883-2.033-1.853-4.022-2.968-5.94-1.48-2.54-3.626-4.625-3.696-7.703-.022-.79-.953-1.15-1.52-.628.33-.303-.583-4.44-.697-5.116a64.175 64.175 0 0 0-1.27-5.743c-.565-2.112-1.263-4.176-2.04-6.209.377.452.777.895 1.167 1.343-.184-.71-.373-1.422-.566-2.133 2.344 2.735 3.503 6.564 4.842 9.866 1.677 4.137 3.6 8.089 6.76 11.303.343.347.91.325 1.256 0l2.156.645.5 1.415c.167.561.237 1.145.426 1.698.281.835.654 1.56 1.216 2.236 1.41 1.7 3.547 2.564 5.483 3.5.369.175.777.149 1.08-.141 2.2-2.126 4.978 1.83 6.857 2.995a13.232 13.232 0 0 0 4.904 1.778c3.345.51 6.629-.224 9.47-2.037.056-.04.105-.08.149-.119.267.123.544.237.834.33.72.22 1.167-.448 1.075-1.028.167-.066.316-.158.444-.28a.8.8 0 0 0 .601.025c1.567-.505 2.643-1.422 3.249-2.823 1.102.839 1.321 2.538 3.446 1.914 2.81-.821 2.748-4.51 4.991-5.963 2.037-1.313 3.341-2.253 4.456-4.51 1.106-2.23 1.756-4.624 3.121-6.705 2.384.817 4.882-.061 6.427-2.19 2.068-2.85 1.765-6.491 1.783-9.916a92.15 92.15 0 0 1 6.543 10.518c.004.047.007.094.019.143l.944 3.706c.232.909 1.426.754 1.69.056a.973.973 0 0 0 .1-.213 72.227 72.227 0 0 0 1.077-40.134l1.668 1.126c.04.11.098.22.194.326l-.033-.093c.01.032.026.059.038.088l-.005.005.013.016c.079.174.195.3.334.383.84.964 1.592 1.984 2.261 3.078.272.445.81.498 1.204.301 4.952 5.309 9.272 11.159 12.796 17.521 2.905 5.245 5.5 11.391 11.717 12.853.633.904 1.538 1.476 2.801 1.702.47.085.96-.122 1.093-.62.666-2.489.91-4.953.76-7.449a23.08 23.08 0 0 0 4.419 3.619c.485.307 1.16.007 1.305-.531l1.28-4.753 2.23 1.138c.394.201 1.007.138 1.215-.318.915-2.012 1.442-4.026 1.594-6.172l2.436 1.1c.459.208 1.21.092 1.304-.53l1.01-6.647c2.028.415 4.046 2.737 6.065 1.146.941-.742 1.13-2.134 1.405-3.203.556-2.157 1.09-4.317 1.632-6.477l2.19.984c.454.204.929.119 1.214-.319a16.276 16.276 0 0 0 2.212-5.059l1.517.59c.465.18.952-.204 1.092-.62l1.87-5.542c2.659-.046 4.143-2.476 4.941-4.95 2.4 1.153 5.085-2.01 5.507-4.393.275-1.552.166-3.334 1.014-4.724.925-1.518 2.744-2.168 4.074-3.219 1.423-1.124 2.363-2.428 2.474-4.06 4.754.624 4.567-7.182 5.813-10.534l1.032.71c.323.221.811.124 1.077-.139 1.195-1.184 1.515-2.579 1.7-4.207.2-1.772.065-3.57 1.777-4.668.917-.59 1.956-.793 2.862-1.45 3.169-2.3 4.331-6.334 5.056-10.063l.818.658c.502.403 1.297.307 1.485-.393 6.568-24.499 6.234-50.482-.93-74.78a96.896 96.896 0 0 0-5.074-14.726c.3-.246.456-.663.206-1.099a18.45 18.45 0 0 0-1.739-2.502c1.04-.712 1.805-1.546 2.511-2.618.518-.785.94-1.633 1.471-2.41.997-1.458 1.185-.909 1.778.566.9 2.244 1.37 6.012 4.087 6.903.93.303 1.673.105 2.3-.601.145-.163.308-.751.426-1.349.268-.35.62-.799.93-1.15.462.15.976.28 1.151.228.307-.087.54-.246.738-.439.285.093.544.167.689.167.988.013 1.9.308 2.52 1.159.044.514.096 1.028.149 1.541-.413.128-.707.497-.496 1.01.36.875.711 1.753 1.058 2.631.079.843.167 1.686.241 2.53.053.596.575.877 1.04.847a159.887 159.887 0 0 1 9.325 42.914c-.162-.11-.325-.22-.483-.33-.636-.632-1.703.01-1.484.866.457 1.786 3.416 17.323-.324 17.24-.637-.019-.935.574-.856 1.123.799 5.52 1.216 10.728.28 16.265-.623 3.714-1.32 7.285-1.084 11.017-.412-.044-.803.264-.957.654-.114.303-.233.602-.347.905a.838.838 0 0 0-.329.338c-4.49 8.18-8.604 16.76-14.496 24.05-5.606 6.947-12.072 13.244-18.2 19.72-1.546 1.634-2.986 3.434-4.926 4.593-1.019.607-1.629.9-2.143 2.034-.94 2.081-.439 3.152-2.388 4.9-.93.834-1.668 1.252-2.23 2.455-.658 1.41-.628 3.68-1.874 4.755-1.612 1.392-2.204-.123-3.649.378-.86.294-1.141 1.014-1.523 1.765-.944 1.853-1.629 3.939-2.31 5.95l-1.702-1.743c-.44-.448-1.353-.272-1.484.395-1.418 7.284-7.915 11.614-13.6 15.592-3.034 2.126-5.993 4.304-9.233 6.091-1.887 1.04-2.774 2.582-3.389 4.453-.329-.277-.654-.554-.983-.826-.448-.377-1.067-.333-1.396.18l-2.27 3.54c-.285.447-.11.873.22 1.115-1.177 1.29-2.863 2.841-3.003 1.155-.075-.865-1.159-1.226-1.655-.449a49.332 49.332 0 0 1-3.39 4.686c-1.092-.913-3.024-.37-4.034.79-.97 1.116-1.286 2.56-3.292 1.95-.448-.136-.553-.593-1.067-.698-.685-.136-.891.048-1.449.39-1.44.892-.452 1.213-2.713 1.48-1.44.168-1.769.01-2.884 1.05-2.243 2.086-4.64 1.673-7.55 2.139-4.457.711-8.684 2.225-12.345 4.839-1.107-1.436-3.091-.673-4.452.574-.544-.43-1.203-.653-1.997-.596-.685.052-1.01.333-1.598.575-.215.087-.365.474-.558.54-.575.206-1.501-.061-2.133-.018-1.15.079-2.217.365-3.337.61-1.08.237-1.01.045-1.997-.039-.466-.04-.852.061-1.287.119-.408.052-.535.369-.89.386-.826.049-2.1-1.072-2.586-1.528-.277-.255-.742-.356-1.076-.136-.241.158-.483.312-.724.47l-.43-1.036c-.154-.374-.43-.65-.857-.655-2.164-.018-4.324-.04-6.484-.057-1.655-.017-5.03.545-6.154-1.054-.268-.373-.79-.601-1.216-.316l-.857.566-.355-.566c-.198-.615-1.01-.896-1.484-.39-.285.294-.566.592-.847.89-1.985-1.08-3.833-1.26-6.186-1.053-1.396.123-2.612-.04-3.727-.413m97.349-16.638c.096-.149.188-.299.285-.448l.303.25a4.622 4.622 0 0 0-.588.198m81.33-195.233c.267-.294.57-.566.895-.816v-15.505a50.503 50.503 0 0 0 6.185 10.692c.43.571 1.418.597 1.624-.21 1.225-4.853-1.198-10.197-2.094-14.952a116.23 116.23 0 0 1-1.76-14.197c.057.079.114.158.18.242.43.553 1.308.184 1.484-.395 1.598-5.322-1.668-10.653-.746-15.883 2.743 3.153 6.984 6.411 11.124 5.554 5.29-1.097 6.159-7.192 6.414-11.64.044-.764-.73-1.014-1.273-.76a82.042 82.042 0 0 1-.488-4.98c2.27 2.275 5.488 5.252 7.648 2.433 1.352-1.76 1.584-4.364 1.79-6.49.163-1.642.203-3.297.536-4.922.176-.843.26-1.427.949-2.033 1.058-.931 1.466-.285 2.647.465 3.125 1.994 7.62 4.11 9.61-.535 1.01-2.354.974-5.349 1.07-7.848.075-1.91.062-3.815.014-5.725.575 1.423 1.168 2.836 1.84 4.202.623 1.274 1.193 2.121 2.682 2.209.403.022.733-.294.856-.655 1.409-4.114-.255-8.602-1.348-12.602-.176-.637-.356-1.27-.54-1.906-.342-.233-.593-.614-.597-1.155a5.986 5.986 0 0 1 .04-.755c.206.07.443.061.689-.08 8.78-4.895 20.303-2.348 25.888 6.113 5.75 8.717 4.592 19.826 2.313 29.451-2.581 10.882-5.36 21.517-6.927 32.618-.738 5.247-1.23 10.538-2.015 15.777-.856 5.7-3.653 10.038-6.506 14.912-3.108 5.309-5.764 10.807-8.504 16.309-1.018 2.046-2.195 4.127-3.6 5.994-.013.201-.065.4-.175.588-.944 1.642-2.819 2.538-4.232 3.728-.154.127-.303.255-.457.382-.549.531-1.093 1.062-1.637 1.594-.25.246-.523.373-.795.413a32.93 32.93 0 0 1-1.075.816c-3.6 3.93-8.1 7.1-13.148 4.685-4.298-2.05-3.271-7.71-3.32-11.759-.35-1.866-.53-3.824-1.215-5.603-.417-1.08-1.093-1.945-1.822-2.788.873 1.782 1.778 3.596 1.83 5.608.01.364-.008.72-.043 1.075.057.453.105.9.131 1.352.128 2.065-.298 4.106-.64 6.14.034.619.091 1.233.184 1.853.53 3.543 2.87 5.866 6.431 6.441 6.186.993 10.756-3.096 14.478-7.627-.202.434-.421.852-.65 1.26.185-.123.37-.246.558-.355-.004.07-.004.14-.009.21a.879.879 0 0 0-.22.55c-.254 4.737-2.071 11.064 2.407 14.275.777.553 1.76 1.22 2.844 1.822a1.694 1.694 0 0 0-.03.144.847.847 0 0 0-.334.664c-.685 14.74 3.995 28.727 10.4 41.803-.22.382-.193.9.307 1.181.127.07.26.145.386.22 1.375 2.74 2.819 5.44 4.303 8.097 4.298 7.706 8.731 15.492 14.307 22.355 5.619 6.92 13.038 12.963 20.571 17.723 4.175 2.639 8.92 3.92 12.938 6.854 3.674 2.683 7.432 4.238 11.967 4.128.263.333.702.513 1.146.386.008 0 .013 0 .022-.004-5.229 16.743-17.635 29.368-29.615 41.79-12.45 12.91-25.59 24.915-42.917 30.684-18.39 6.127-38.066 10.192-57.316 12.304-19.68 2.156-39.106 1.077-58.537-2.63-10.312-1.967-20.637-4.215-30.796-6.85-8.183-2.124-16.344-5.04-22.503-10.946a.84.84 0 0 0-.127-.459 68.39 68.39 0 0 0-1.576-2.481 34.55 34.55 0 0 1 4.201-.797c1.77-.224 3.942.07 5.615-.677 1.611-.715 1.536-1.791 3.635-2.296.76-.185 1.405.083 2.16-.391.799-.51.693-1.204 1.822-.984.232.044.544.58.842.655.778.192 1.379.22 2.156-.11.558-.237.944-.61 1.352-1.041.084-.092 2.634-3.926 3.02-2.077.132.632 1.058.887 1.484.395a51.776 51.776 0 0 0 3.552-4.645c.509.513 1.229.803 2.098.764 2.999-.14 3.38-4.229 6.208-4.708.368-.066.562-.294.619-.566.368 0 .715-.202.83-.628.61-2.31 1.255-3.71 3.41-4.918 1.612-.905 3.1-1.906 4.619-2.964 2.945-2.064 5.948-4.07 8.81-6.257 4.1-3.127 7.885-6.82 9.382-11.795l1.598 1.638c.496.505 1.269.22 1.488-.395.724-2.047 1.322-4.418 2.37-6.319 1.353-2.463 1.74-.65 3.68-1.37 2.713-1.005 2.607-4.075 3.692-6.231.807-1.612 2.577-1.914 3.516-3.377.72-1.12.465-2.507.979-3.666.672-1.506 2.954-2.468 4.14-3.65 1.58-1.576 3.077-3.253 4.61-4.873 5.978-6.32 12.3-12.463 17.608-19.374 5.074-6.604 8.82-14.192 12.783-21.503.264-.07.5-.25.624-.563l.522-1.352c.101.018.224.035.39.058.716.096 1.19-.374 1.094-1.09-.702-5.155.913-10.09 1.453-15.17.452-4.243-.061-8.463-.663-12.665 1.998-.628 2.287-3.377 2.419-5.326.268-3.96-.061-7.891-.86-11.755.166.079.333.158.518.233.522.215 1.159-.326 1.123-.857a161.393 161.393 0 0 0-10.773-48.398c-.096-.984-.184-1.972-.285-2.956.022-.184.044-.369.057-.549m-290.206-27.821c-.316-.374-.729-.352-1.036-.14-.698-1.244-1.26-2.552-1.783-3.879-1.448-2.423-2.34-4.794-1.975-6.674 1.431 4.044 5.189 6.833 8.714 9.037 4.408 2.758 9.11 4.167 14.15 5.256 5.574 1.2 11.734 3.057 16.769 5.726 5.075 2.692 10.655 5.296 12.538 11.154.118.373.4.557.702.601-.022.255-.14.483-.311.677-1.203-1.23-2.656-2.293-4.083-3.303-4.004-2.854-7.604-3.982-12.45-4.61-5.435-.712-10.435-2.898-15.501-4.874-2.718-1.063-5.475-2.06-8.166-3.188-3.112-1.305-5.39-3.241-7.568-5.783M915.23 594.887c-6.458-3.135-13.196-5.664-19.557-9.01-7.174-3.781-12.88-8.743-18.329-14.697-4.899-5.353-9.561-11.707-15.58-15.857-6.339-4.378-13.253-7.855-19.549-12.344-6.409-4.566-12.485-9.577-18.227-14.956-2.34-2.195-4.658-4.439-7.283-6.296-2.788-1.976-5.812-3.07-9.048-4.057-2.076-.637-4.109-1.309-5.961-2.464-1.563-.975-2.955-2.213-4.588-3.074-3.472-1.835-7.423-1.4-11.129-2.336-4.346-1.102-8.178-3.702-11.967-5.993-4.381-2.653-8.762-5.305-13.148-7.957a.788.788 0 0 0-.663-.102c-.074-.408-.175-.82-.303-1.237-1.36-4.497-4.758-8.247-7.502-11.957-3.122-4.22-6.203-8.475-9.395-12.647-6.352-8.29-13.701-14.407-22.982-19.21-4.28-2.214-8.96-4.625-13.714-5.578-5.22-1.04-10.641-.584-15.905-1.445-5.694-.93-11.625-1.861-17.003-4.022-5.812-2.335-11.242-5.796-16.7-8.879-6.461-13.028-11.093-26.943-10.491-41.509.28-.012.553-.035.825-.065 2.103.794 4.285 1.001 5.887-.444.505-.456.263-1.084-.193-1.357 5.44-2.994 9.03-9.124 10.61-15.184 1.48-5.664 1.713-11.553 2.687-17.306 1.04-6.13 2.797-12.115 4.46-18.095 3.315-11.904 6.682-23.809 10.826-35.454a232.903 232.903 0 0 1 7.327-18.205c2.296-5.05 4.618-10.074 5.347-15.628.9-6.886.707-13.744 2.186-20.586 1.21-5.6 3.069-11.013 5.478-16.193.468-1.704 1.071-3.37 1.56-5.086a1.007 1.007 0 0 0-.264-.114c1.7-4.73 2.081-9.801 1.958-14.798-.145-5.928-.917-11.82-1.067-17.749-.149-5.906.132-11.816.448-17.713.628-11.585 1.449-23.278-.426-34.795-1.857-11.422-7.037-21.565-12.748-31.494a673.937 673.937 0 0 0-6.476-11 1.189 1.189 0 0 1-.32-.228c-.386-.386-.768-.781-1.155-1.177a1.339 1.339 0 0 1-1.04-.549c-.632-.834-1.264-1.659-1.875-2.502-.377-.408-.741-.826-1.106-1.243a122.127 122.127 0 0 0-7.696-8.875c-.29-.302-.658-.232-.895-.008-4.065-3.68-8.517-6.982-13.043-10.038-5.97-4.035-12.033-8.12-18.385-11.535-2.884-1.555-5.874-2.934-8.99-3.962-1.665-.549-3.329-.965-4.8-1.962-1.426-.97-2.677-2.227-3.836-3.495-3.916-4.303-6.996-9.55-12.135-12.482a.634.634 0 0 0-.296-.434c-10.956-7.06-22.047-13.89-33.38-20.331-5.579-3.171-11.194-6.294-16.887-9.256-5.307-2.761-10.786-5.247-16.67-6.472-6.01-1.25-12.22-1.588-18.324-2.08-6.643-.536-13.303-.936-19.97-.926-13.193.02-26.016 2.489-38.958 4.771-8.774 1.547-17.56 3.051-26.315 4.71.474-.29.948-.58 1.428-.86-4.59.971-9.16 2.052-13.68 3.306-1.773.377-3.544.763-5.312 1.161a.566.566 0 0 0-.47.555c-4.586 1.456-9.102 3.125-13.51 5.089-12.829 5.716-24.61 13.562-37.632 18.858a.64.64 0 0 0-.345.088l-.296.166c-.463.185-.925.375-1.392.554a.66.66 0 0 0-.414.452c-3.555 1.942-7.252 3.819-10.483 6.19-3.19 2.341-4.474 6.202-7.467 8.801-2.764 2.401-5.918 4.386-7.962 7.502-1.303 1.986-2.283 4.095-3.802 5.947-1.324 1.613-2.868 3.005-4.562 4.211-2.674 1.45-3.106 4.24-3.464 7.193-.707 5.815-4.707 9.558-9.232 12.855-6.887 5.02-14.401 9.258-16.97 17.942-.697 2.357-2.065 3.995-3.042 6.156-.896 1.984-.704 4.26-1.167 6.347-1.075 4.843-4.566 8.79-7.684 12.469-3.468 4.093-7.003 8.137-10.408 12.283-2.708 3.298-5.04 6.783-5.775 11.065-.82 4.775-.297 9.856.472 14.603.475 2.938.812 9.484 4.962 9.505 1.144.006 1.145-1.771 0-1.776-2.583-.014-3.065-6.957-3.337-8.742-.47-3.094-.734-6.258-.678-9.39.114-6.442 2.908-10.812 6.936-15.584 3.754-4.446 7.624-8.809 11.283-13.335 2.655-3.285 5.183-6.868 6.049-11.081.21-1.029.243-2.066.383-3.102.264-1.968 1.016-3.144 2-4.768 1.081-1.786 1.447-3.61 2.134-5.563 1.978-5.627 6.887-9.344 11.602-12.616 3.816-2.648 7.895-5.216 10.84-8.878 1.26-1.565 2.321-3.325 2.883-5.267.833-2.884-.1-7.505 3.329-8.91.47-.192.634-.647.577-1.049 2.426-1.907 4.5-4.2 6.09-6.878 1.196-2.013 2.231-3.957 3.94-5.6 1.418-1.365 3.01-2.527 4.532-3.77 1.359-1.11 2.68-2.281 3.754-3.679 1.396-1.815 2.164-3.89 3.985-5.377 3.724-3.044 8.49-5.164 12.687-7.534 11.196-4.494 21.477-10.859 32.244-16.254 8.193-4.105 16.722-7.203 25.476-9.65 10.855-2.29 21.788-4.187 32.713-6.113 12.86-2.268 25.768-5.11 38.853-5.588 12.96-.475 26.325.387 39.169 2.181 12.506 1.746 23.454 8.535 34.286 14.616 11.956 6.712 23.648 13.855 35.182 21.264-.031.224.057.452.331.582 5.207 2.486 8.31 7.413 11.937 11.672 1.712 2.011 3.626 4.106 5.961 5.401 2.924 1.62 6.458 2.244 9.509 3.663 6.26 2.92 12.033 6.85 17.806 10.608 6.084 3.965 12.099 8.097 17.45 13.029 3.508 3.236 6.695 6.806 9.338 10.745.557.562 1.12 1.115 1.664 1.686a119.127 119.127 0 0 1 6.273 9.66.605.605 0 0 0 .535.316c5.44 9.31 10.826 18.812 13.245 29.403 2.643 11.562 2.024 23.532 1.379 35.274-.32 5.906-.676 11.812-.672 17.73.004 5.798.584 11.537.94 17.315.416 6.837.28 13.745-2.551 20.103-2.151 4.839-5.075 9.322-4.96 14.807a.94.94 0 0 0 .074.347 76.883 76.883 0 0 0-2.573 14.389c-.492 6.121-.426 12.067-2.55 17.929-2.033 5.612-4.843 10.951-7.082 16.493-4.42 10.943-7.963 22.215-11.234 33.548-3.152 10.912-6.76 21.934-8.28 33.219-1.404 10.45-3.085 27.751-16.19 29.517a24.686 24.686 0 0 1-1.628-.76c-1.862-.94-3.657-1.787-4.535-3.768-1.133-2.555-.562-6.138-.25-9.16a.678.678 0 0 0 .136-.307c.167-.988.259-1.976.259-2.982a.918.918 0 0 0-.044-.28c.1-.12.22-.225.36-.295.009-.009.162-.105.21-.127.005-.009.014-.013.023-.022.136-.123.267-.255.39-.39.246-.273.479-.558.72-.83.018-.023.04-.036.062-.053a.224.224 0 0 1 .03-.04c.207-.255.51-.382.835-.413-.172.022-.339.04-.505.07 5.614-4.838 8.499-13.375 11.848-19.658 2.797-5.252 6.686-10.245 8.785-15.817 2.037-5.405 2.107-11.663 2.844-17.34.883-6.785 1.906-13.56 3.346-20.253 1.387-6.463 3.389-12.778 4.75-19.25 2.067-9.853 2.357-21.196-4.118-29.583-6.344-8.22-18.166-10.319-27.166-5.387.049-.045.101-.089.132-.145.104-.177.339-.508.638-.854-.704-.034-1.33-.385-1.82-.9-.01-.01-.02-.023-.03-.035-.577-.24-1.111-.6-1.571-1.124-.694-.79-1.238-1.717-1.678-2.717-.272.252-.409.647-.188 1.067a24.21 24.21 0 0 0 1.611 2.63c.61 1.959 1.203 3.922 1.77 5.893 1.101 3.865 3.086 8.72 2.212 12.831-.935-.958-1.695-3.723-2.05-4.58l-2.094-5.006c-.351-.848-1.791-.86-1.743.238.228 5.322.808 11.18-.347 16.431-1.712 7.777-7.56-.852-11.08-.228-2.617.46-2.766 4.566-2.981 6.608-.202 1.92.114 6.337-1.4 7.79-1.954 1.879-5.65-2.692-6.88-3.759-.548-.474-1.55-.193-1.519.628.15 3.882.575 7.72 1.26 11.544a.83.83 0 0 0 .18.391c-.592 3.004-1.97 5.805-5.43 5.88-3.797.079-7.397-3.237-9.53-6.117-.466-.628-1.344-.536-1.625.215-1.892 5.138 1.115 10.253.702 15.382a9.818 9.818 0 0 1-.588-1.677c-.246-.962-1.778-.777-1.743.237.163 5.208.624 10.389 1.444 15.54.413 2.622.922 5.234 1.515 7.825.562 2.455 1.449 4.931 1.422 7.439a49.315 49.315 0 0 1-6.387-13.05c-.299-.936-1.747-.791-1.747.236l.004 15.215c-.026-.07-.048-.14-.07-.206-.18-.545-1.888-.053-1.717.457.062.189.128.377.19.566 0 .022-.005.04-.005.057.009.206.03.409.04.615-.356-.444-.69-.913-.993-1.436a.902.902 0 0 0-1.216-.32c-.584.35-.926 1.202-1.343 1.637-.286-.1-.505-.197-.834-.145-.264.04-.527.154-.786.312-.307-.074-.61-.158-.874-.163a.882.882 0 0 0-.764.44c-.057.105-.619 2.024-.487 1.884-1.932 2.068-3.073-2.657-3.34-3.478-.383-1.172-.72-3.508-2.156-3.97-1.137-.369-1.875.453-2.542 1.27-1.484 1.804-2.116 4.083-4.18 5.396-.021.013-.034.03-.052.044a16.675 16.675 0 0 0-1.519-1.379.906.906 0 0 0-.89-.156c-.118-7.854-5.119-13.887-10.41-19.2-6.098-6.123-11.828-12.686-18.283-18.44-10.157-9.057-22.357-16.285-30.526-27.282.363-.303.54-.877.144-1.34-6.259-7.319-12.755-15.16-14.594-24.894-.959-5.075-.483-10.167 1.795-14.828 1.684-3.445 3.773-6.634 3.393-10.625-.062-.658-.709-1.124-1.336-.767-2.513 1.428-4.485 3.616-6.075 6.16 1.053-3.169 2.05-6.357 2.975-9.566 1.012-3.507 2.19-7.095 2.692-10.718.177-1.275.69-3.854-1.018-4.459-1.876-.663-3.433 2.046-4.303 3.236-2.09 2.86-3.691 6.064-6.025 8.745-.566.651-1.343 1.538-1.786.157-.158-.493.7-2.628.852-3.113a39.86 39.86 0 0 1 2.322-5.77c1.402-2.822 3.456-5.4 3.03-8.71-.1-.76-.9-1.177-1.518-.628-2.869 2.553-5.518 5.314-7.885 8.343-1.924 2.46-3.584 5.433-6.143 7.28a45.51 45.51 0 0 1 9.57-15.086c.788-.828-.454-2.077-1.256-1.257-5.79 5.923-11.607 11.819-17.361 17.776-.685.708-1.437 1.441-2.217 2.198 1.016-2.17 2.066-4.319 3.258-6.37 4.012-6.907 8.752-13.337 14.096-19.269.427-.473.223-1.077-.174-1.367a138.719 138.719 0 0 1 7.42-4.98c.321.502 1.143.695 1.522.02l.917-1.634c.43-.763-.439-1.677-1.215-1.215-10.55 6.287-20.048 14.088-29.14 22.307-7.28 6.579-14.658 13.283-20.385 21.277 5.847-17.496 20.886-29.825 36.45-39.066.982-.583.09-2.12-.897-1.534-17.5 10.39-34.34 24.697-38.74 45.543-.203.961 1.093 1.584 1.623.685 5.91-10.03 14.65-17.916 23.205-25.649 5.308-4.798 10.755-9.445 16.473-13.729-4.536 5.245-8.628 10.857-12.169 16.827-2.218 3.742-3.957 7.804-5.84 11.77-2.674 2.886-4.986 6.102-5.34 9.717-.094.966 1.2 1.084 1.655.448 1.856-2.591 3.347-5.424 4.736-8.323.366-.392.729-.78 1.08-1.164 2.363-2.591 4.804-5.109 7.253-7.618 2.155-2.208 4.312-4.413 6.469-6.618a48.154 48.154 0 0 0-3.483 7.985c-.196.594.467 1.354 1.093 1.094 3.11-1.296 5.06-3.698 7-6.365 2.434-3.346 5.088-6.43 8.061-9.27-.592 2.89-2.806 5.755-3.885 8.345-1.011 2.427-2.861 6.201-2.455 8.883.834 5.497 7.155-3.35 7.985-4.62.864-1.323 1.68-2.676 2.567-3.984.546-.805 1.113-1.805 1.83-2.47 1.061-.98.721-.808 1.158-.05.637 1.11-.96 5.234-1.298 6.517-.478 1.81-.978 3.612-1.496 5.41-2.178 7.554-4.724 14.993-7.577 22.317-.277.71.39 1.148.99 1.053l-.177.62c-.311 1.102 1.402 1.573 1.713.472 1.699-6.018 4.102-14.15 9.422-18.156-.37 4.401-3.685 8.143-4.851 12.398-1.149 4.189-1.013 8.646-.067 12.858 1.755 7.817 6.353 14.429 11.37 20.556a.823.823 0 0 0 .097.646c7.373 12.67 19.976 20.49 30.95 29.684 6.312 5.287 11.744 11.417 17.5 17.276 6.019 6.124 13.425 12.365 13.486 21.69.004.67.618.945 1.123.828.036.15.124.296.284.425a17.08 17.08 0 0 1 2.926 2.98.894.894 0 0 0 .026.731 94.084 94.084 0 0 1 4.7 12.224.83.83 0 0 0 .018.484c.445 1.36.863 2.725 1.264 4.095a94.639 94.639 0 0 1 2.868 22.23c.01 1.001 1.376 1.126 1.705.37a136.454 136.454 0 0 1-3.384 49.654l-.902-.726c-.464-.373-1.356-.334-1.484.392-.367 2.077-.774 4.179-1.558 6.145-1.127 2.824-2.79 4.186-5.434 5.527-3.821 1.937-1.774 6.013-3.731 8.758l-1.22-.84c-.415-.285-.96-.053-1.215.32-.798 1.164-1.148 2.302-1.357 3.697-.298 1.993-.19 7.98-4.06 6.585-.685-.247-1.213.485-1.092 1.093l-1.204 3.133c-.535.445-1.098.848-1.689 1.21-.507.344-1.031.654-1.517 1.03-.87.668-1.556 1.35-2.064 2.34-.43.837-.585 1.718-.739 2.644-.157.954-1.339 7.863-3.915 4.798-.43-.51-1.338-.224-1.484.392-.425 1.788-1.41 5.37-3.983 4.948-.496-.08-.926.125-1.093.62l-1.786 5.295-1.615-.629c-.423-.164-1.01.184-1.093.621a15.114 15.114 0 0 1-1.828 4.92l-2.445-1.099c-.504-.226-1.153-.073-1.305.531-.375 1.49-1.475 9.695-3.415 9.898-.741.077-2.01-1.036-2.704-1.32-.791-.324-1.43-.464-2.27-.405-.352.025-.795.256-.856.652l-.958 6.312-2.575-1.163c-.594-.27-1.338.04-1.336.767.005 2.106-.324 3.957-1.076 5.85l-2.365-1.206c-.503-.257-1.148-.049-1.305.531l-1.242 4.612a20.64 20.64 0 0 1-4.79-4.7c-.597-.81-1.813-.337-1.623.685a21.03 21.03 0 0 1-.088 8.287l-.771-.646-.024-.02-.68-.57c-.28-.864-1.426-.742-1.7-.104-6.244-2.244-8.88-11.057-12.136-16.196-3.468-5.474-7.536-10.526-12.072-15.149a.85.85 0 0 0-.402-.236c-.096-.25-.175-.507-.265-.782-.332-1.01-1.023-1.84-2.156-1.85a.754.754 0 0 0-.18.024l-3.33-2.25c-.65-.44-1.517.286-1.305 1.002a70.464 70.464 0 0 1 .53 38.146.97.97 0 0 0-.157-.122c-.035-.016-.057-.043-.083-.066.244-.495.031-1.22-.633-1.305a92.31 92.31 0 0 0-7.68-11.861c-.549-.716-1.559-.461-1.655.448-.25 2.283-.022 4.558-.193 6.84-.22 3.005-2.152 8.02-6.234 5.938-.47-.238-.913-.084-1.216.32-2.78 3.645-2.889 8.48-7.024 11.035-1.611.997-2.261 1.66-3.06 3.416-.26 1.617-1.326 2.205-3.2 1.766a8.394 8.394 0 0 0-.527-.725c-.672-.298-.62-.58-1.396-.777-.457-.114-.98.145-1.093.62-.185 1.307-.97 2.169-2.35 2.577-.043.013-.082.035-.126.057-.347-.215-.83-.21-1.115.1.079.032.079.334-.101.168-.005-.005-.01-.005-.014-.009a.847.847 0 0 0-.092.224c.027-.101.053-.171.075-.229-.053-.026-.123-.034-.167-.052-.28-.11-.536-.286-.825-.382-.659-.22-1.317-.136-1.822.35-.347.33-.338.928 0 1.257.03.035.07.061.1.092-4.367 2.49-9.657 2.05-13.556-1.242-2.063-1.748-4.521-3.803-6.984-1.959-1.844-.86-3.714-1.695-4.79-3.508-.913-1.542-.812-3.527-1.988-4.932-1.001-1.198-2.52-1.65-3.806-1.027-3.75-4.097-5.475-9.327-7.564-14.399-1.313-3.188-2.955-6.327-5.769-8.263a66.856 66.856 0 0 0-1.852-5.156c-3.236-7.886-7.613-15.215-12.894-21.902-5.738-7.268-11.172-14.448-15.501-22.628.057-.053.088-.096.066-.131-3.121-5.358-5.703-11.027-8.771-16.41a.872.872 0 0 0 .14-.075c-.035-.03-.075-.048-.105-.084-.286-.285-.558-.596-.72-.965-.013-.035-.022-.066-.035-.097a1.223 1.223 0 0 1-.132-.412l-.092.012a72.38 72.38 0 0 0-1.892-3.016c-2.353-3.53-5.207-6.692-7.621-10.179-2.235-3.227-4.14-6.67-5.765-10.244-6.225-13.722-7.963-28.806-8.823-43.727.373-.136.667-.434.557-.803-.268-.883-.51-1.77-.746-2.662-.031-.645-.066-1.294-.097-1.94-.004-.079-.175-.11-.412-.097-1.05-4.44-1.708-8.962-1.91-13.533-.233-5.318.57-10.557.531-15.857-.03-4.373-1.054-8.4-3.806-11.846-1.436-1.796-3.117-3.36-4.82-4.9-.33-.396-.637-.805-.953-1.213 1.55.966 3.235 1.761 5.14 2.508 4.659 1.822 9.294 3.767 14.018 5.418 4.487 1.572 9.276 1.445 13.719 2.925 3.387 1.125 8.495 4.083 10.777 7.702-.488-.46-1.127-.775-1.429-1.377-.233-.465-.676-.53-1.043-.37-2.599-1.644-6.853 1.348-9.197 2.358-4.583 1.976-9.145 2.616-13.474.927-.374.176-.826.193-1.294-.082-.955-.562-1.717-1.342-2.536-2.074-.751-.67-1.526-1.247-2.03-2.142-.043-.077-.072-.153-.1-.23a.862.862 0 0 0-.187.531c-.032 1.17.484 2.158 1.285 2.867.02.247.131.491.377.672 3.46 2.55 7.672 3.79 11.962 3.227 2.012-.263 3.92-.918 5.786-1.688 1.66-.685 7.354-4.209 8.835-2.525.014.016.03.024.043.038.162.054.312.132.446.235.1.014.199.013.295-.013.313.26.654.489.952.816.373.41.505.907.438 1.368.233.26.381.59.353.948a5.298 5.298 0 0 1-.453 1.813c1.147-.59 1.947-1.673 1.926-3.038-.002-.078-.016-.155-.023-.232.164.567.252 1.142.24 1.725a.79.79 0 0 0 .242.623c1.032 8.48.097 17.2-1.26 25.574-2.059 12.708-5.387 25.31-6.528 38.12a1.378 1.378 0 0 0-.478.06v.045c0 .478-.19.838-.466 1.076a5.086 5.086 0 0 0-.171.439c-.294 8.637-2.134 17.186 3.095 24.853 4.5 6.6 12.222 9.911 20.093 9.305a.995.995 0 0 0 .711-.378c6.849.097 13.328-3.618 19.426-6.257 5.29-2.288 11.098-2.687 16.656-4.013a32.32 32.32 0 0 0 1.72-.22.9.9 0 0 0 .475.018 21.64 21.64 0 0 0 2.024-.584c.021-.01.043-.014.065-.023.07-.026.145-.048.216-.074.267-.083.53-.167.794-.268.215-.079.351-.154.426-.22a20.76 20.76 0 0 0 4.785-2.916c.277-.22.342-.495.281-.741a16.171 16.171 0 0 0 2.687-2.929c1.084-1.265 1.887-2.736 2.256-4.448a1.428 1.428 0 0 1-.009-.365c.119-1.142.15-2.13.07-3.078a16.137 16.137 0 0 0-1.33-5.63c-.636-1.461-1.712-2.542-2.62-3.833-.589-.843-.8-1.141-1.818-1.4a.846.846 0 0 0-.43-.01c1.94 2.486 3.573 4.88 3.802 7.918.008.026.022.053.03.083.123.36.233.725.334 1.098.549 2.981.119 5.889-1.629 8.475a14.246 14.246 0 0 1-2.893 3.122c-1.453.856-3.064 1.48-4.61 1.963-.583.18-.737.641-.579.953-2.247.882-4.64 1.475-6.967 1.94-5.25 1.054-10.57 1.704-15.466 4.014-5.518 2.604-12.01 5.937-18.293 5.643-.584-.031-.865.421-.851.873-7.67.281-14.984-3.526-18.755-10.345-1.756-3.17-2.388-6.464-2.528-9.823.136.008.316-.009.505-.04-.194-1.66.22-3.35.474-5.006a1.12 1.12 0 0 1 .285-.596c-.11-16.322 4.583-32.188 7.086-48.255 1.37-8.821 2.247-18.008.777-26.877a45.78 45.78 0 0 0-1.282-5.507.883.883 0 0 0-.031-.421 15.268 15.268 0 0 0-.593-1.546c-1.053-3.135-2.366-6.178-3.815-9.164-1.334-2.007-2.827-3.904-4.438-5.744a1.475 1.475 0 0 1-.377-.865c-.281-.28-.562-.562-.848-.843-.048.049-.074.097-.052.136 1.303 2.459 2.607 4.936 3.828 7.452a36.319 36.319 0 0 1 2.155 4.172c-1.238-1.138-2.669-2.126-4.25-3.039-4.525-2.617-8.946-4.659-13.929-6.266-5.18-1.669-10.685-2.472-15.751-4.409-5.101-1.95-12.266-5.669-14.145-11.17a.863.863 0 0 0-.334-.453c-.057-.39-.338-.742-.847-.742a.923.923 0 0 0-.36.07c-.061-.601-.127-1.203-.18-1.809.044-.439.092-.878.15-1.317a.805.805 0 0 0 .144-.54c-.008-.145-.013-.29-.017-.44.009-.074.022-.149.035-.228-.004-.013-.009-.026-.009-.044a23.898 23.898 0 0 1-.022-2.507c.013-.663.07-1.322.198-1.976-.07-.01-.14-.013-.215-.013.153-4.585.619-9.169.065-13.736-.654-5.4-3.138-10.2-5.685-14.93-.544-1.005-2.076-.11-1.536.9 2.12 3.935 4.065 7.812 5.035 12.068a.864.864 0 0 0-.149.448c-.496 7.605-.39 15.201.281 22.767-.162 1.994-.189 3.983.03 5.963-.039.018-.07.04-.11.062 1.581 4.281 3.162 8.207 6.713 11.254 2.112 2.933 4.114 5.7 6.849 8.181a.868.868 0 0 0 .64.237.242.242 0 0 0 .036.04c3.766 4.364 4.407 9.33 4.096 14.916-.554 9.867-.409 19.145 2.01 28.652.808 16.067 2.31 32.432 9.013 47.257 3.455 7.632 8.793 13.537 13.385 20.423a74.215 74.215 0 0 1 1.796 2.85c-20.721 3.342-40.933 9.458-59.99 18.276-9.632 4.457-18.736 9.559-26.761 16.567-8.39 7.325-16.617 14.697-25.265 21.732-15.852 12.892-29.29 27.975-40.968 44.714-11.708 16.783-21.682 34.685-31.533 52.592-12.819 23.295-25.62 46.599-38.426 69.902a.79.79 0 0 0-.088.224c-5.18 3.908-11.181 8.282-14.54 13.942-1.536 2.59-2.05 5.37-2.265 8.339-.28 3.864-.733 7.342-2.555 10.823-3.187 6.104-8.455 10.666-12.91 15.795-4.478 5.147-7.134 10.838-9.365 17.16-5.083 1.243-10.263 2.293-15.255 3.874-3.824 1.211-7.775 2.91-10.523 5.945-3.244 3.584-3.424 8.058-4.56 12.524-1.287 5.067-4.488 9.41-7.622 13.493-.847 1.107-1.655 1.946-2.893 2.582-.926.483-1.918.782-2.774 1.397-1.616 1.16-2.182 2.955-2.547 4.821-.193.988-.303 2.042-.676 2.986-.54 1.352-1.69 2.253-2.744 3.197-2.392 2.152-4.793 4.3-7.19 6.446-4.07 3.654-8.144 7.302-12.218 10.952-3.288 2.95-7.388 5.708-6.098 10.678.65 2.513 2.332 4.664 2.828 7.22.46 2.389-1.181 3.2-3.152 3.956-.98.378-1.945.786-2.889 1.242h5.632c1.712-.956 2.933-2.318 2.674-4.865-.461-4.514-5.5-8.76-1.567-12.94 3.929-4.176 8.666-7.803 12.933-11.632 4.052-3.631 8.543-7.066 12.257-11.035 1.356-1.449 1.852-3.1 2.217-5.015.206-1.058.32-2.226.873-3.174.659-1.133 1.853-1.555 2.977-2.078 3.994-1.852 6.734-6.657 8.924-10.319 1.054-1.76 1.976-3.614 2.643-5.555.905-2.617 1.11-5.374 1.809-8.04 1.449-5.537 5.918-8.474 11.067-10.27 4.763-1.66 9.781-2.697 14.707-3.855-.198 1.282 1.795 1.795 2.133.465.053-.202.101-.4.154-.597.259-.114.478-.33.593-.663 1.167-3.408 2.33-6.833 4.02-10.02 1.656-3.119 3.85-5.868 6.204-8.485 4.175-4.632 8.85-8.944 11.901-14.46 1.431-2.586 2.45-5.357 2.845-8.294.465-3.456.132-7.061 1.664-10.293 1.339-2.836 3.617-5.103 5.882-7.214a110.718 110.718 0 0 1 8.728-7.298c.439-.334.53-.839.412-1.27 11.138-20.26 22.28-40.525 33.417-60.79 9.856-17.928 19.588-35.967 30.779-53.11 11.05-16.928 23.618-33 38.816-46.414 8.078-7.127 16.796-13.477 24.755-20.739 4.013-3.658 7.924-7.448 12.209-10.793 4.487-3.513 9.403-6.425 14.456-9.033 21.2-10.938 44.287-18.219 67.826-21.96 2.836 4.953 5.25 10.148 8.043 15.127-.031.045-.04.093-.022.132 4.218 8.347 9.557 15.703 15.387 22.975 5.851 7.293 10.694 15.224 14.149 23.931.355.891.68 1.787.987 2.687a.84.84 0 0 0-.368.088c.044.119.092.241.14.36.465 1.002.711 2.086.909 3.18.057.333 0 .627-.127.873.017.136.035.268.048.4.004.013 0 .026 0 .039 1.857 4.708 3.174 9.6 3.863 14.623.145 1.054.637 4.101 1.95 4.443.214 1.533.767 2.85 1.694 4.199 2.155 3.126 3.95 6.34 5.417 9.853.202.483.786.9 1.308.531.154-.11.312-.22.47-.329l1.093 2.871c.193.519.773.853 1.304.532l.852-.522c.47 1.071.943 2.142 1.418 3.21.201.46.825.513 1.211.32.536.224 1.071.452 1.603.676.193.58.772.786 1.308.532 1.045-.492 1.326-.067 2.274.606.307.22.83.13 1.075-.14l.777-.844c1.48 1.295 3.056 2.546 4.882 3.285.053.07.101.14.154.21a46.73 46.73 0 0 0 3.1 3.728c-.036.18 0 .382.144.593 6.427 9.265 13.846 17.814 22.218 25.38 3.626 3.276 7.436 6.886 11.998 8.809 5.377 2.275 11.326 3.17 16.831 5.16 5.834 2.103 11.27 4.87 16.744 7.745 4.877 2.56 9.324 3.689 14.842 3.307 3.086-.21 6.015-.373 8.978.729 2.787 1.036 5.215 2.389 8.187 2.894 2.783.47 5.58.65 8.306 1.458 2.77.82 5.426 1.98 8.205 2.774 10.255 2.943 21.01 1.933 31.244-.675.127.241.377.408.746.377 34.045-2.713 67.953-9.752 100.04-21.542 27.731-10.192 53.33-26.848 71.544-50.38 9.377-12.124 16.506-25.876 20.453-40.714a.866.866 0 0 0 .004-.46c.685-1.885 1.137-3.808 1.085-5.828 6.62 4.03 13.156 8.554 20.115 11.957 2.634 1.286 5.351 2.121 8.262 2.468 1.958.233 3.968.307 5.851.926 2.055.676 3.644 2.042 5.396 3.228 2.506 1.69 5.215 2.551 8.082 3.434 4.047 1.242 7.401 3.14 10.606 5.919 5.51 4.786 10.69 9.866 16.463 14.363a175.935 175.935 0 0 0 17.208 11.847c2.81 1.7 5.782 3.193 8.478 5.067 3.433 2.385 6.124 5.626 8.92 8.69 4.952 5.415 9.684 11.308 15.492 15.839 5.686 4.435 12.227 7.531 18.79 10.42 9.43 4.15 20.997 9.024 27.666 17.323v-2.533c-4.478-4.967-10.501-8.787-16.507-11.707M525.857 169.869c-2.088 13.683-3.852 27.527-3.174 41.396.574 11.738 2.228 25.85 10.27 35.045.753.862 2.005-.398 1.255-1.256-4.073-4.658-6.027-10.541-7.41-16.475-1.494-6.405-2.226-12.964-2.426-19.532-.394-12.976 1.244-25.906 3.198-38.705.17-1.12-1.54-1.601-1.713-.473m35.438-15.633a183.32 183.32 0 0 0 6.216 63.28c.306 1.1 2.02.634 1.713-.472a181.845 181.845 0 0 1-6.153-62.808c.088-1.14-1.689-1.134-1.776 0m54.237 49.29c1.839-13.606-.469-27.474-2.997-40.85-2.677-14.165-6.272-28.135-9.863-42.09-.284-1.107-1.998-.638-1.712.472 3.399 13.212 6.801 26.436 9.427 39.829 2.692 13.736 5.325 28.158 3.433 42.167-.152 1.118 1.56 1.602 1.712.472m57.899-34.62c2.587-23.544-10.184-44.457-22.274-63.513-.61-.962-2.149-.072-1.534.897 11.936 18.815 24.586 39.361 22.032 62.615-.125 1.135 1.652 1.126 1.776 0m-327.955-46.484c21.673-8.851 44.348-13.745 67.659-15.506 22.564-1.704 45.468-1.707 67.37-8.087 1.097-.319.63-2.033-.471-1.713-22.47 6.545-45.973 6.32-69.104 8.196-22.692 1.84-44.823 6.779-65.926 15.397-1.044.426-.588 2.146.472 1.713m-21.941 60.392c40.843-22.6 84.85-37.21 129.039-51.645 11.568-3.78 23.024-8.094 33.236-14.826.95-.627.062-2.166-.897-1.534-9.355 6.168-19.755 10.296-30.34 13.83-10.758 3.594-21.612 6.891-32.368 10.496-21.682 7.268-43.163 15.203-64.06 24.512-12.077 5.38-23.938 11.232-35.507 17.633-1 .554-.105 2.089.897 1.534m148.08-48.11c-13.505 18.834-36.653 25.549-57.24 33.49-21.186 8.17-41.669 18.088-61.25 29.583-.986.579-.093 2.115.896 1.534 16.114-9.459 32.836-17.873 50.076-25.084 16.521-6.91 34.29-11.71 49.658-21.11C461.27 148.52 468 142.782 473.15 135.6c.667-.93-.873-1.818-1.534-.896M579.202 62.05c.693-.969-.849-1.912-1.534-.956-12.785 17.878-31.477 29.09-49.58 39.825-.999.592-.104 2.228.897 1.634 18.41-10.916 37.224-22.334 50.217-40.503m-104.2 248.398c-16.367-1.525-33.067-1.177-49.246 1.644-8.685 1.514-16.38 5.663-24.506 8.88-3.303 1.307-18.707 7.896-24.64 5.512a.227.227 0 0 0-.2-.16 1.288 1.288 0 0 0-.382.015 2.016 2.016 0 0 0-.838-.286c-.04-.031-.086-.06-.127-.091-.375-.551-.696-1.11-.956-1.491-.506-.744-1.208-1.626-1.583-2.547.46.036.94-.004 1.233-.03.318-.03.598-.108.856-.221.349-.045.591-.148 1.042-.38 1.347-.695 2.42-1.408 3.89-1.927 4.923-1.744 9.895-3.363 14.84-5.043 10.222-3.473 20.443-7.087 31.071-9.118a118.835 118.835 0 0 1 33.05-1.595c9.042.825 18.697 2.379 26.34 7.556l-9.319-.839a.777.777 0 0 0-.524.121m6.637 2.206l6.236.562c.744.067 1.204-1.036.628-1.517-7.146-5.968-16.213-8.147-25.255-9.336a120.324 120.324 0 0 0-32.115.119c-11.326 1.564-22.167 5.019-32.96 8.68-5.308 1.8-10.615 3.607-15.921 5.41-2.058.699-4.119 1.371-6.128 2.197-1.43.588-1.794.955-3.468.54-1.368-.34-2.778-1.172-4.079-1.72-.467-.198-.943.178-1.085.629 1.182 2.184 2.514 4.256 4.105 6.176.365.44.692.901 1.006 1.37.626.66 1.18 1.399 1.89 1.965.124.098.253.19.386.278.125-.04.242-.105.34-.186a.622.622 0 0 0 .018.007c9.11 4.396 38.044-10.29 42.954-12.006 9.652-3.375 20.642-3.885 30.782-4.293 10.696-.431 21.4.044 32.024 1.334.288.035.5-.054.642-.209m175.157 2.767c.584 12.77-11.325 20.765-17.925 30.277 1.17-1.051 2.383-2.01 3.302-2.85a100.517 100.517 0 0 1 4.219-3.633c3.907-4.43 7.943-8.867 10.253-14.036.58-3.3.381-6.874.253-10.214a.827.827 0 0 0-.102.456m4.71-18.237a.925.925 0 0 0 .243.528c-.007.169-.02.336-.025.505-.034 1.143 1.742 1.142 1.777 0 .108-3.572.802-7.01 1.789-10.38a39.98 39.98 0 0 1 2.465-10.606.909.909 0 0 0-.782.587c-1.905 4.866-3.733 9.755-4.65 14.857-1.073-3.665-2.73-7.119-4.23-10.683-1.325-3.146-2.23-6.273-2.546-9.436a1.302 1.302 0 0 1-.232-.509c-.707-3.066-1.16-6.44-.493-9.552-1.775 5.581-1.61 11.303.335 16.852 2.094 5.972 5.552 11.46 6.348 17.837" id="Combined-Shape"/></g></g></g></svg>